<svg width="512" height="512" viewBox="0 0 64 64" fill="none" xmlns="http://www.w3.org/2000/svg">
  <defs>
    <linearGradient id="linear-facet-1" x1="16" y1="12" x2="32" y2="44" gradientUnits="userSpaceOnUse">
      <stop offset="0%" stop-color="#A855F7" />
      <stop offset="100%" stop-color="#7C3AED" />
    </linearGradient>
    <linearGradient id="linear-facet-2" x1="32" y1="20" x2="48" y2="52" gradientUnits="userSpaceOnUse">
      <stop offset="0%" stop-color="#6366F1" />
      <stop offset="100%" stop-color="#3B82F6" />
    </linearGradient>
  </defs>
  <!-- Top Left Triangle -->
  <path
    d="M 31 13 C 31.8 11.7 33.7 11.7 34.5 13 L 47.5 32 C 48.4 33.3 47.4 35 45.8 35 H 18.2 C 16.6 35 15.6 33.3 16.5 32 L 29.5 13 Z"
    fill="url(#linear-facet-1)"
  />
  <!-- Bottom Right Intersecting Triangle -->
  <path
    d="M 34.5 51 C 33.7 52.3 31.8 52.3 31 51 L 18 32 C 17.1 30.7 18.1 29 19.7 29 H 47.3 C 48.9 29 49.9 30.7 49 32 L 36 51 Z"
    fill="url(#linear-facet-2)"
    style="mix-blend-mode: screen;"
  />
</svg>